<?xml version="1.0" standalone="no"?><!DOCTYPE svg PUBLIC "-//W3C//DTD SVG 1.1//EN" "http://www.w3.org/Graphics/SVG/1.1/DTD/svg11.dtd"><svg t="1537172396800" class="icon" style="" viewBox="0 0 1024 1024" version="1.1" xmlns="http://www.w3.org/2000/svg" p-id="1088" xmlns:xlink="http://www.w3.org/1999/xlink" width="32" height="32"><defs><style type="text/css"></style></defs><path d="M938.666667 316.586667c-3.84 83.2-61.866667 197.12-174.08 342.186666C648.533333 810.666667 550.4 885.333333 469.333333 885.333333c-49.066667 0-91.306667-46.08-125.866666-138.666666-23.466667-83.626667-44.8-168.106667-68.693334-252.586667-25.6-92.16-52.906667-138.24-82.773333-138.24-5.973333 0-28.16 13.653333-66.56 40.533333L85.333333 344.32c42.666667-37.12 83.626667-74.24 124.586667-111.36 56.32-48.64 98.56-74.24 126.293333-76.8 66.56-6.826667 107.52 39.253333 122.88 136.533333 16.64 105.386667 28.16 170.666667 34.56 196.266667 18.346667 87.04 39.68 129.706667 63.146667 129.706667 17.92 0 44.8-27.306667 80.64-84.053334 35.84-56.32 55.04-99.413333 57.6-129.28 5.12-48.64-14.08-72.96-57.6-72.96-20.48 0-41.386667 4.693333-63.146667 14.08 41.813333-137.813333 122.026667-204.8 240.213334-200.96 87.893333 2.56 129.28 59.733333 124.16 171.093334z" fill="" p-id="1089"></path></svg>